<svg width="73" height="80" viewBox="0 0 73 80" fill="none" xmlns="http://www.w3.org/2000/svg">
<path d="M35.209 0.0333939C33.8084 0.149437 32.3599 0.573593 31.1315 1.22983C30.9354 1.33787 27.098 3.54267 22.6084 6.13562C18.1187 8.72857 12.3566 12.0538 9.80369 13.5263C5.22202 16.1713 4.48976 16.6114 3.82151 17.1436C3.38535 17.4918 2.63308 18.244 2.28495 18.6802C1.24457 19.9767 0.516308 21.5452 0.204194 23.1458C-0.0118843 24.2662 0.000120044 23.3339 0.000120044 40.008C0.000120044 56.6821 -0.0118843 55.7497 0.204194 56.8701C0.744391 59.6551 2.421 62.068 4.90191 63.6446C5.25404 63.8687 30.6753 78.542 31.1315 78.7861C32.1679 79.3383 33.3403 79.7225 34.5567 79.9065C35.313 80.0226 36.6095 80.0306 37.3497 79.9305C38.5502 79.7625 39.6066 79.4343 40.675 78.9022C40.9711 78.7541 42.2075 78.0618 43.416 77.3616C44.6284 76.6613 50.3905 73.3361 56.2206 69.9669C62.0547 66.6017 66.9605 63.7646 67.1246 63.6606C67.8689 63.2004 68.8132 62.4201 69.3734 61.7919C70.7699 60.2353 71.6262 58.4147 71.9504 56.3139C72.0224 55.8497 72.0264 55.2655 72.0264 40.008C72.0264 24.7824 72.0224 24.1622 71.9504 23.702C71.6302 21.6133 70.7659 19.7766 69.3734 18.224C68.8132 17.5958 67.8689 16.8155 67.1246 16.3553C66.7845 16.1433 41.9554 1.80605 41.2151 1.39389C39.3265 0.333504 37.2537 -0.134666 35.209 0.0333939ZM37.0736 12.538C38.7863 12.9061 40.1308 13.9305 40.915 15.463C41.2912 16.1953 41.4912 17.0516 41.4872 17.9199C41.4832 19.3965 40.931 20.7129 39.8787 21.7613C39.2424 22.3935 38.5342 22.8297 37.6979 23.1018C37.0616 23.3059 36.8135 23.3419 35.9932 23.3419C35.321 23.3379 35.213 23.3299 34.8128 23.2299C34.0765 23.0458 33.4123 22.7457 32.8601 22.3495L32.664 22.2095L31.7157 22.7577C31.1955 23.0578 28.8706 24.3983 26.5498 25.7388L22.3283 28.1717V28.9199C22.3283 29.7522 22.2802 30.0483 22.0402 30.7446C21.56 32.1331 20.5516 33.2495 19.2111 33.8897C18.4709 34.2419 17.7306 34.4059 16.8863 34.4059C16.042 34.4059 15.3017 34.2419 14.5614 33.8897C13.2169 33.2495 12.2166 32.1371 11.7324 30.7406C11.4963 30.0643 11.4443 29.7522 11.4443 28.9639C11.4443 28.1957 11.4923 27.8715 11.7084 27.2233C12.1526 25.8948 13.1369 24.7424 14.3854 24.1062C15.2377 23.67 15.9219 23.506 16.8863 23.506C18.0427 23.506 18.959 23.7821 19.9354 24.4263L20.2595 24.6424L25.4454 21.6533C30.4632 18.7562 30.6273 18.6562 30.5993 18.5602C30.5873 18.5041 30.5753 18.2 30.5753 17.8799C30.5833 17.0276 30.7473 16.2993 31.1115 15.535C31.6116 14.4907 32.544 13.5463 33.6044 13.0101C34.0005 12.8141 34.7488 12.574 35.193 12.5019C35.6651 12.4259 36.6375 12.4459 37.0736 12.538ZM55.7124 23.526C57.0169 23.666 58.1573 24.2222 59.0857 25.1626C59.8179 25.9068 60.3061 26.8432 60.5462 27.9636C60.6502 28.4398 60.6502 29.4881 60.5462 29.9643C60.1821 31.6769 59.1617 33.0414 57.6892 33.7977C56.8569 34.2299 56.0606 34.4219 55.1402 34.4179C54.0518 34.4099 53.0475 34.1058 52.1631 33.5136C51.9791 33.3856 51.815 33.2855 51.799 33.2855C51.767 33.2855 41.5073 39.1997 41.4712 39.2397C41.4592 39.2557 41.4592 39.4358 41.4712 39.6438C41.5553 40.9603 41.1751 42.2448 40.3828 43.2972C39.8947 43.9454 39.0784 44.6137 38.3821 44.9298L38.078 45.0698L38.074 51.052V57.0342L38.4982 57.2463C40.0307 58.0265 41.1191 59.4991 41.4152 61.2037C41.4953 61.6679 41.4953 62.5482 41.4152 63.0244C41.2031 64.2608 40.5149 65.4693 39.5705 66.2615C38.9743 66.7617 38.4541 67.0538 37.7179 67.2979C35.353 68.0862 32.7601 67.1459 31.3836 64.9931C31.0755 64.5129 30.8074 63.8287 30.6633 63.1644C30.5953 62.8403 30.5753 62.6242 30.5753 62.116C30.5753 61.6078 30.5953 61.3918 30.6633 61.0677C30.9114 59.9072 31.4396 58.9509 32.2679 58.1626C32.668 57.7825 33.2723 57.3623 33.6844 57.1742L33.9525 57.0542V51.06V45.0698L33.6324 44.9178C33.4603 44.8337 33.1682 44.6657 32.9882 44.5456C32.712 44.3616 32.644 44.3295 32.576 44.3656C32.528 44.3856 30.2071 45.7261 27.4101 47.3386L22.3283 50.2757L22.3403 50.8319C22.3803 52.4165 21.8281 53.813 20.7277 54.9134C19.9394 55.7057 18.971 56.2179 17.8386 56.442C17.3184 56.542 16.3741 56.534 15.8379 56.418C14.6815 56.1739 13.7211 55.6457 12.9328 54.8174C11.9485 53.781 11.4243 52.4765 11.4243 51.052C11.4243 48.0469 13.8772 45.598 16.8863 45.598C17.9787 45.598 19.0271 45.9221 19.9434 46.5424L20.2395 46.7424L20.3876 46.6664C20.4716 46.6224 22.7964 45.2859 25.5574 43.6933L30.5793 40.7923L30.5753 40.092C30.5753 39.3157 30.6273 38.9556 30.8314 38.3274C31.4636 36.3987 33.1002 34.9821 35.1249 34.618C35.6131 34.534 36.4574 34.534 36.9536 34.622C37.6979 34.7541 38.4261 35.0502 39.0624 35.4743C39.2464 35.5944 39.4145 35.6864 39.4425 35.6744C39.4705 35.6624 41.7994 34.3219 44.6164 32.6933L49.7383 29.7362L49.7263 29.12C49.6982 27.9116 49.9823 26.9152 50.6226 25.9548C51.5269 24.5944 52.9754 23.71 54.6 23.526C55.0362 23.4779 55.2763 23.4779 55.7124 23.526ZM56.0446 45.674C57.133 45.8581 58.1213 46.3543 58.9256 47.1186C59.7539 47.9069 60.2781 48.8632 60.5302 50.0236C60.6502 50.5958 60.6502 51.5402 60.5302 52.1204C60.2981 53.2008 59.8139 54.1171 59.0657 54.8734C58.2574 55.6937 57.289 56.2179 56.1686 56.442C55.6804 56.542 54.624 56.538 54.1599 56.442C52.6513 56.1218 51.4469 55.3176 50.6106 54.0731C50.2264 53.4969 49.8983 52.6766 49.7783 51.9723C49.6942 51.4922 49.6942 50.6278 49.7783 50.1597C50.1024 48.315 51.3308 46.7624 53.0395 46.0422C53.5236 45.8341 53.9318 45.7261 54.52 45.634C54.8041 45.594 55.7004 45.614 56.0446 45.674Z" fill="white"/>
</svg>
